<svg xmlns="http://www.w3.org/2000/svg" xmlns:xlink="http://www.w3.org/1999/xlink" xmlns:lucid="lucid" width="1758.4" height="940"><g transform="translate(-12 -100)" lucid:page-tab-id="0_0"><path d="M0 0h1870.4v1323.2H0z" fill="#fff"/><path d="M620 280c0 22.1-17.9 40-40 40s-40-17.9-40-40 17.9-40 40-40 40 17.9 40 40zm-80 0h80m-40-40v80M160 120c17.67 0 32 17.9 32 40s-14.33 40-32 40H64c-17.67 0-32-17.9-32-40s14.33-40 32-40z" stroke="#000" stroke-width="2" fill="#ffdba9"/><use xlink:href="#a" transform="matrix(1,0,0,1,37,125) translate(35.05 38.6)"/><use xlink:href="#b" transform="matrix(1,0,0,1,37,125) translate(90.95 38.6)"/><path d="M40 240h160l-21.33 80H61.33z" stroke="#000" stroke-width="2" fill="#ffdba9"/><use xlink:href="#a" transform="matrix(1,0,0,1,45,245) translate(21.049999999999997 27.799999999999997)"/><use xlink:href="#c" transform="matrix(1,0,0,1,45,245) translate(76.95 27.799999999999997)"/><use xlink:href="#d" transform="matrix(1,0,0,1,45,245) translate(42.025 49.4)"/><path d="M380 340h160l-21.33 80H401.33z" stroke="#000" stroke-width="2" fill="#ffdba9"/><use xlink:href="#e" transform="matrix(1,0,0,1,385,345) translate(29.525 27.799999999999997)"/><use xlink:href="#f" transform="matrix(1,0,0,1,385,345) translate(80.475 27.799999999999997)"/><use xlink:href="#g" transform="matrix(1,0,0,1,385,345) translate(40.5 49.4)"/><path d="M655 250h160v60H655z" stroke="#000" stroke-width="2" fill="#ffdba9"/><use xlink:href="#h" transform="matrix(1,0,0,1,659.9993772994494,255) translate(23.574999999999996 18.299999999999997)"/><use xlink:href="#i" transform="matrix(1,0,0,1,659.9993772994494,255) translate(75.525 18.299999999999997)"/><use xlink:href="#j" transform="matrix(1,0,0,1,659.9993772994494,255) translate(52.425 39.9)"/><path d="M267 120h160v80H267z" stroke="#000" stroke-width="2" fill="#ffdba9"/><use xlink:href="#k" transform="matrix(1,0,0,1,271.9993772994394,125) translate(17.525 17)"/><use xlink:href="#l" transform="matrix(1,0,0,1,271.9993772994394,125) translate(67.525 17)"/><use xlink:href="#m" transform="matrix(1,0,0,1,271.9993772994394,125) translate(15.599999999999994 38.6)"/><use xlink:href="#n" transform="matrix(1,0,0,1,271.9993772994394,125) translate(56.49999999999999 38.6)"/><use xlink:href="#o" transform="matrix(1,0,0,1,271.9993772994394,125) translate(27.5 60.2)"/><use xlink:href="#p" transform="matrix(1,0,0,1,271.9993772994394,125) translate(62.5 60.2)"/><path d="M193 160h54.5" stroke="#000" stroke-width="2" fill="none"/><path d="M193 161h-1.06l.06-1-.04-1H193z"/><path d="M262.76 160l-14.26 4.64v-9.28z" stroke="#000" stroke-width="2"/><path d="M461 279h59.5v2H459V161h-31v-2h33zM428 161h-1v-2h1zM535.76 280l-14.26 4.64v-9.28z"/><path d="M539 280l-18.5 6v-12zm-16.5 3.26l10.03-3.26-10.03-3.26z"/><path d="M621 280h14.5" stroke="#000" stroke-width="2" fill="none"/><path d="M621 281h-1.06l.06-1-.04-1H621z"/><path d="M650.76 280l-14.26 4.64v-9.28z" stroke="#000" stroke-width="2"/><path d="M675 400h60c33.14 0 60 26.86 60 60s-26.86 60-60 60h-60z" stroke="#000" stroke-width="2" fill="#ffdba9"/><use xlink:href="#q" transform="matrix(1,0,0,1,679.9993772994494,405) translate(32.05 47.8)"/><use xlink:href="#r" transform="matrix(1,0,0,1,679.9993772994494,405) translate(22.049999999999997 69.4)"/><use xlink:href="#s" transform="matrix(1,0,0,1,679.9993772994494,405) translate(48 69.4)"/><path d="M520 540h60c33.14 0 60 26.86 60 60s-26.86 60-60 60h-60z" stroke="#000" stroke-width="2" fill="#ffdba9"/><use xlink:href="#t" transform="matrix(1,0,0,1,525,545) translate(19.074999999999996 47.8)"/><use xlink:href="#u" transform="matrix(1,0,0,1,525,545) translate(69.975 47.8)"/><use xlink:href="#v" transform="matrix(1,0,0,1,525,545) translate(22 69.4)"/><path d="M864 430h160v60H864z" stroke="#000" stroke-width="2" fill="#ffdba9"/><use xlink:href="#w" transform="matrix(1,0,0,1,868.999999301108,435) translate(19.049999999999997 28.6)"/><use xlink:href="#x" transform="matrix(1,0,0,1,868.999999301108,435) translate(64 28.6)"/><use xlink:href="#y" transform="matrix(1,0,0,1,868.999999301108,435) translate(94 28.6)"/><path d="M796 460h48.5" stroke="#000" stroke-width="2" fill="none"/><path d="M796 461h-1.04l.04-1-.04-1H796z"/><path d="M859.76 460l-14.26 4.64v-9.28z" stroke="#000" stroke-width="2"/><path d="M864 660h160v60H864z" stroke="#000" stroke-width="2" fill="#ffdba9"/><use xlink:href="#w" transform="matrix(1,0,0,1,868.999999301108,665) translate(4.049999999999997 17.799999999999997)"/><use xlink:href="#z" transform="matrix(1,0,0,1,868.999999301108,665) translate(49 17.799999999999997)"/><use xlink:href="#A" transform="matrix(1,0,0,1,868.999999301108,665) translate(66 17.799999999999997)"/><use xlink:href="#y" transform="matrix(1,0,0,1,868.999999301108,665) translate(56.525 39.4)"/><path d="M864 570h160v60H864z" stroke="#000" stroke-width="2" fill="#ffdba9"/><use xlink:href="#B" transform="matrix(1,0,0,1,868.999999301108,575) translate(30.549999999999997 17.799999999999997)"/><use xlink:href="#C" transform="matrix(1,0,0,1,868.999999301108,575) translate(37.025 39.4)"/><path d="M944 631v9.5" stroke="#000" stroke-width="2" fill="none"/><path d="M945 631h-2v-1h2z"/><path d="M944 655.76l-4.64-14.26h9.28z" stroke="#000" stroke-width="2"/><path d="M864 760h160v60H864z" stroke="#000" stroke-width="2" fill="#ffdba9"/><use xlink:href="#D" transform="matrix(1,0,0,1,868.999999301108,765) translate(14.049999999999997 28.6)"/><use xlink:href="#y" transform="matrix(1,0,0,1,868.999999301108,765) translate(99 28.6)"/><path d="M944 721v19.5" stroke="#000" stroke-width="2" fill="none"/><path d="M945 721h-2v-1h2z"/><path d="M944 755.76l-4.64-14.26h9.28z" stroke="#000" stroke-width="2"/><path d="M1218 250h160v60h-160z" stroke="#000" stroke-width="2" fill="#ffdba9"/><use xlink:href="#E" transform="matrix(1,0,0,1,1222.9993766005573,255) translate(1.0499999999999972 29.1)"/><use xlink:href="#C" transform="matrix(1,0,0,1,1222.9993766005573,255) translate(73 29.1)"/><path d="M1420 510h160v60h-160z" stroke="#000" stroke-width="2" fill="#ffdba9"/><use xlink:href="#F" transform="matrix(1,0,0,1,1425,515) translate(17.574999999999996 17.799999999999997)"/><use xlink:href="#G" transform="matrix(1,0,0,1,1425,515) translate(77.525 17.799999999999997)"/><use xlink:href="#H" transform="matrix(1,0,0,1,1425,515) translate(45.05 39.4)"/><path d="M864 250h160v60H864z" stroke="#000" stroke-width="2" fill="#ffdba9"/><use xlink:href="#I" transform="matrix(1,0,0,1,869.0006233994427,255) translate(26.049999999999997 18.299999999999997)"/><use xlink:href="#J" transform="matrix(1,0,0,1,869.0006233994427,255) translate(93.95 18.299999999999997)"/><use xlink:href="#K" transform="matrix(1,0,0,1,869.0006233994427,255) translate(16.074999999999996 39.9)"/><use xlink:href="#L" transform="matrix(1,0,0,1,869.0006233994427,255) translate(71.975 39.9)"/><use xlink:href="#y" transform="matrix(1,0,0,1,869.0006233994427,255) translate(96.975 39.9)"/><path d="M1025 280h16.5" stroke="#000" stroke-width="2" fill="none"/><path d="M1025 281h-1v-2h1z"/><path d="M1056.76 280l-14.26 4.64v-9.28z" stroke="#000" stroke-width="2"/><path d="M1061 220h60c33.14 0 60 26.86 60 60s-26.86 60-60 60h-60z" stroke="#000" stroke-width="2" fill="#ffdba9"/><use xlink:href="#M" transform="matrix(1,0,0,1,1066,225) translate(18.424999999999997 47.8)"/><use xlink:href="#N" transform="matrix(1,0,0,1,1066,225) translate(58.675 47.8)"/><use xlink:href="#K" transform="matrix(1,0,0,1,1066,225) translate(5.049999999999997 69.4)"/><use xlink:href="#O" transform="matrix(1,0,0,1,1066,225) translate(60.95 69.4)"/><path d="M816 280h28.5" stroke="#000" stroke-width="2" fill="none"/><path d="M816 281h-1v-2h1z"/><path d="M859.76 280l-14.26 4.64v-9.28z" stroke="#000" stroke-width="2"/><path d="M1182 280h16.5" stroke="#000" stroke-width="2" fill="none"/><path d="M1182 281h-1.04l.04-1-.04-1h1.04z"/><path d="M1213.76 280l-14.26 4.64v-9.28z" stroke="#000" stroke-width="2"/><path d="M1630.4 480h60c33.14 0 60 26.86 60 60s-26.86 60-60 60h-60z" stroke="#000" stroke-width="2" fill="#ffdba9"/><use xlink:href="#M" transform="matrix(1,0,0,1,1635.4000000000233,485) translate(24.875 47.8)"/><use xlink:href="#P" transform="matrix(1,0,0,1,1635.4000000000233,485) translate(65.125 47.8)"/><use xlink:href="#Q" transform="matrix(1,0,0,1,1635.4000000000233,485) translate(20 69.4)"/><path d="M1581 540h29.9" stroke="#000" stroke-width="2" fill="none"/><path d="M1581 541h-1v-2h1z"/><path d="M1626.16 540l-14.26 4.64v-9.28z" stroke="#000" stroke-width="2"/><path d="M1420 250h160v60h-160z" stroke="#000" stroke-width="2" fill="#ffdba9"/><use xlink:href="#R" transform="matrix(1,0,0,1,1425,254.99999999999997) translate(20.074999999999996 29.1)"/><use xlink:href="#S" transform="matrix(1,0,0,1,1425,254.99999999999997) translate(72.975 29.1)"/><path d="M1379 280h21.5" stroke="#000" stroke-width="2" fill="none"/><path d="M1379 281h-1v-2h1z"/><path d="M1415.76 280l-14.26 4.64v-9.28z" stroke="#000" stroke-width="2"/><path d="M1500 311v19.25" stroke="#000" stroke-width="2" fill="none"/><path d="M1501 311h-2v-1h2z"/><path d="M1500 345.5l-4.64-14.25h9.28z" stroke="#000" stroke-width="2"/><path d="M1500 350l80 60-80 60-80-60z" stroke="#000" stroke-width="2" fill="#ffdba9"/><use xlink:href="#T" transform="matrix(1,0,0,1,1425,355) translate(15.049999999999997 58.6)"/><use xlink:href="#U" transform="matrix(1,0,0,1,1425,355) translate(87 58.6)"/><path d="M1501 479.32h-2v-8.07h2zM1501 471.25h-2v-2l1 .75 1-.75zM1500 505.76l-1.57-4.83h3.14z"/><path d="M1500 509l-2.62-8.07h2.1l.52 1.6.52-1.6h2.1z"/><use xlink:href="#V" transform="matrix(1,0,0,1,1481.875,479.325) translate(0 14.4)"/><path d="M1691.4 479h-2V210H1501v20.5h-2V208h192.4zM1691.4 480.04l-1-.04h-1v-1h2z"/><path d="M1500 245.76l-4.64-14.26h9.28z"/><path d="M1500 249l-6-18.5h12zm-3.26-16.5l3.26 10.03 3.26-10.03z"/><path d="M1160 380h160v60h-160z" stroke="#000" stroke-width="2" fill="#ffdba9"/><use xlink:href="#W" transform="matrix(1,0,0,1,1165,385) translate(28.549999999999997 29.1)"/><use xlink:href="#X" transform="matrix(1,0,0,1,1165,385) translate(76.5 29.1)"/><path d="M1361.9 411h-22.4v-2h22.4zm56.43 0h-17.57v-2h17.57z"/><path d="M1420 410l1.33 1h-3v-2h3zM1338.5 414.64l-14.26-4.64 14.26-4.64z"/><path d="M1339.5 416l-18.5-6 18.5-6zm-12.03-6l10.03 3.26v-6.52z"/><use xlink:href="#Y" transform="matrix(1,0,0,1,1361.9083333333333,399.2) translate(0 14.4)"/><path d="M1240 441v9.25" stroke="#000" stroke-width="2" fill="none"/><path d="M1241 441h-2v-1h2z"/><path d="M1240 465.5l-4.64-14.25h9.28z" stroke="#000" stroke-width="2"/><path d="M1240 470l80 60-80 60-80-60z" stroke="#000" stroke-width="2" fill="#ffdba9"/><use xlink:href="#T" transform="matrix(1,0,0,1,1165,475) translate(15.049999999999997 58.6)"/><use xlink:href="#U" transform="matrix(1,0,0,1,1165,475) translate(87 58.6)"/><path d="M1241 604.33h-2v-13.08h2zM1241 591.25h-2v-2l1 .75 1-.75zM1240 635.76l-3.2-9.84h6.4z"/><path d="M1240 639l-4.25-13.08h2.1l2.15 6.6 2.15-6.6h2.1z"/><use xlink:href="#V" transform="matrix(1,0,0,1,1221.875,604.325) translate(0 14.4)"/><path d="M1180 640h120v60h-120z" stroke="#000" stroke-width="2" fill="#ffdba9"/><use xlink:href="#Z" transform="matrix(1,0,0,1,1185,645) translate(6.049999999999997 29.1)"/><use xlink:href="#aa" transform="matrix(1,0,0,1,1185,645) translate(48 29.1)"/><path d="M1381 620.5h-2v-4.37h2zm0-25.97h-2V531h-57.33v-2H1381zM1321.67 531h-3l1.33-1-1.33-1h3zM1380 635.76l-4.64-14.26h9.28z"/><path d="M1380 639l-6-18.5h12zm-3.26-16.5l3.26 10.03 3.26-10.03z"/><use xlink:href="#Y" transform="matrix(1,0,0,1,1360.575,594.5333333333334) translate(0 14.4)"/><path d="M1320 640h120v60h-120z" stroke="#000" stroke-width="2" fill="#ffdba9"/><use xlink:href="#W" transform="matrix(1,0,0,1,1325,645) translate(3.049999999999997 28.6)"/><use xlink:href="#aa" transform="matrix(1,0,0,1,1325,645) translate(51 28.6)"/><path d="M1380 701v59.25" stroke="#000" stroke-width="2" fill="none"/><path d="M1381 701h-2v-1h2z"/><path d="M1380 775.5l-4.64-14.25h9.28z" stroke="#000" stroke-width="2"/><path d="M1380 780l80 60-80 60-80-60z" stroke="#000" stroke-width="2" fill="#ffdba9"/><use xlink:href="#T" transform="matrix(1,0,0,1,1305,785) translate(15.049999999999997 58.6)"/><use xlink:href="#U" transform="matrix(1,0,0,1,1305,785) translate(87 58.6)"/><path d="M1381 919.33h-2v-18.08h2zM1381 901.25h-2v-2l1 .75 1-.75zM1380 955.76l-4.64-14.26h9.28z"/><path d="M1380 959l-5.87-18.08h11.74zm-3.26-16.5l3.26 10.03 3.26-10.03z"/><use xlink:href="#Y" transform="matrix(1,0,0,1,1360.575,919.325) translate(0 14.4)"/><path d="M1300 960h160v60h-160z" stroke="#000" stroke-width="2" fill="#ffdba9"/><use xlink:href="#ab" transform="matrix(1,0,0,1,1305,965) translate(7.074999999999989 17.799999999999997)"/><use xlink:href="#ac" transform="matrix(1,0,0,1,1305,965) translate(66.975 17.799999999999997)"/><use xlink:href="#ad" transform="matrix(1,0,0,1,1305,965) translate(127.925 17.799999999999997)"/><use xlink:href="#ae" transform="matrix(1,0,0,1,1305,965) translate(36.05 39.4)"/><path d="M1540 810h160v60h-160z" stroke="#000" stroke-width="2" fill="#ffdba9"/><use xlink:href="#af" transform="matrix(1,0,0,1,1545,815) translate(19.549999999999997 17.799999999999997)"/><use xlink:href="#ag" transform="matrix(1,0,0,1,1545,815) translate(74.5 17.799999999999997)"/><use xlink:href="#ah" transform="matrix(1,0,0,1,1545,815) translate(46.074999999999996 39.4)"/><path d="M1482.2 841h-20.53v-2h20.54zm38.3 0h-2.04v-2h2.04zM1461.67 841h-3l1.33-1-1.33-1h3zM1535.76 840l-14.26 4.64v-9.28z"/><path d="M1539 840l-18.5 6v-12zm-16.5 3.26l10.03-3.26-10.03-3.26z"/><g><use xlink:href="#V" transform="matrix(1,0,0,1,1482.2083335,829.2) translate(0 14.4)"/></g><path d="M1140.5 411H1120v578h179v2h-181V409h22.5zM1300 991h-1v-2h1z"/><path d="M1155.76 410l-14.26 4.64v-9.28z"/><path d="M1159 410l-18.5 6v-12zm-16.5 3.26l10.03-3.26-10.03-3.26z"/><path d="M1441 670h159V540h10.9" stroke="#000" stroke-width="2" fill="none"/><path d="M1441 671h-1v-2h1z"/><path d="M1626.16 540l-14.26 4.64v-9.28z" stroke="#000" stroke-width="2"/><path d="M775 680c0 22.1-17.9 40-40 40s-40-17.9-40-40 17.9-40 40-40 40 17.9 40 40zm-68.3-28.3l56.6 56.6m-56.6 0l56.6-56.6M500 700h160l-21.33 80H521.33z" stroke="#000" stroke-width="2" fill="#ffdba9"/><g><use xlink:href="#a" transform="matrix(1,0,0,1,505,705) translate(21.049999999999997 27.799999999999997)"/><use xlink:href="#c" transform="matrix(1,0,0,1,505,705) translate(76.95 27.799999999999997)"/><use xlink:href="#d" transform="matrix(1,0,0,1,505,705) translate(42.025 49.4)"/></g><path d="M650.37 740h21.8v-60h3.33" stroke="#000" stroke-width="2" fill="none"/><path d="M650.37 741h-1.3l.53-2h.77z"/><path d="M690.76 680l-14.26 4.64v-9.28z" stroke="#000" stroke-width="2"/><path d="M641 600h26.5v80h8" stroke="#000" stroke-width="2" fill="none"/><path d="M641 601h-1.04l.04-1-.04-1H641z"/><path d="M690.76 680l-14.26 4.64v-9.28z" stroke="#000" stroke-width="2"/><path d="M776 680h43.5v-80h25" stroke="#000" stroke-width="2" fill="none"/><path d="M776 681h-1.06l.06-1-.04-1H776z"/><path d="M859.76 600l-14.26 4.64v-9.28z" stroke="#000" stroke-width="2"/><path d="M190.37 280h9.46" stroke="#000" stroke-width="2" fill="none"/><path d="M190.37 281h-1.3l.53-2h.77z"/><path d="M215.1 280l-14.27 4.64v-9.28z" stroke="#000" stroke-width="2"/><path d="M300 220l80 60-80 60-80-60z" stroke="#000" stroke-width="2" fill="#ffdba9"/><g><use xlink:href="#ai" transform="matrix(1,0,0,1,225,225) translate(47.55 47.8)"/><use xlink:href="#aj" transform="matrix(1,0,0,1,225,225) translate(89.5 47.8)"/><use xlink:href="#ak" transform="matrix(1,0,0,1,225,225) translate(27.049999999999997 69.4)"/><use xlink:href="#al" transform="matrix(1,0,0,1,225,225) translate(102.95 69.4)"/></g><path d="M401.2 281h-19.53v-2h19.53zm119.3 0h-96.35v-2h96.35z"/><path d="M381.67 281h-3l1.33-1-1.33-1h3zM535.76 280l-14.26 4.64v-9.28z"/><path d="M539 280l-18.5 6v-12zm-16.5 3.26l10.03-3.26-10.03-3.26z"/><g><use xlink:href="#am" transform="matrix(1,0,0,1,401.1952329594532,269.2) translate(0 14.4)"/></g><path d="M301 679h374.5v2H299V381.75h2zm0-318.85h-2v-18.9h2zM301 341.25h-2v-2l1 .75 1-.75zM690.76 680l-14.26 4.64v-9.28z"/><path d="M694 680l-18.5 6v-12zm-16.5 3.26l10.03-3.26-10.03-3.26z"/><g><use xlink:href="#an" transform="matrix(1,0,0,1,285.325,360.14805867127325) translate(0 14.4)"/></g><path d="M460 339v-59h60.5" stroke="#000" stroke-width="2" fill="none"/><path d="M461 340h-2v-1h2z"/><path d="M535.76 280l-14.26 4.64v-9.27z" stroke="#000" stroke-width="2"/><path d="M735 311v69.5" stroke="#000" stroke-width="2" fill="none"/><path d="M736 311h-2v-1h2z"/><path d="M735 395.76l-4.64-14.26h9.27z" stroke="#000" stroke-width="2"/><defs><path d="M30-248c87 1 191-15 191 75 0 78-77 80-158 76V0H30v-248zm33 125c57 0 124 11 124-50 0-59-68-47-124-48v98" id="ao"/><path d="M100-194c62-1 85 37 85 99 1 63-27 99-86 99S16-35 15-95c0-66 28-99 85-99zM99-20c44 1 53-31 53-75 0-43-8-75-51-75s-53 32-53 75 10 74 51 75" id="ap"/><path d="M206 0h-36l-40-164L89 0H53L-1-190h32L70-26l43-164h34l41 164 42-164h31" id="aq"/><path d="M100-194c63 0 86 42 84 106H49c0 40 14 67 53 68 26 1 43-12 49-29l28 8c-11 28-37 45-77 45C44 4 14-33 15-96c1-61 26-98 85-98zm52 81c6-60-76-77-97-28-3 7-6 17-6 28h103" id="ar"/><path d="M114-163C36-179 61-72 57 0H25l-1-190h30c1 12-1 29 2 39 6-27 23-49 58-41v29" id="as"/><g id="a"><use transform="matrix(0.05,0,0,0.05,0,0)" xlink:href="#ao"/><use transform="matrix(0.05,0,0,0.05,12,0)" xlink:href="#ap"/><use transform="matrix(0.05,0,0,0.05,22,0)" xlink:href="#aq"/><use transform="matrix(0.05,0,0,0.05,34.95,0)" xlink:href="#ar"/><use transform="matrix(0.05,0,0,0.05,44.95,0)" xlink:href="#as"/></g><path d="M140-251c81 0 123 46 123 126C263-46 219 4 140 4 59 4 17-45 17-125s42-126 123-126zm0 227c63 0 89-41 89-101s-29-99-89-99c-61 0-89 39-89 99S79-25 140-24" id="at"/><path d="M117-194c89-4 53 116 60 194h-32v-121c0-31-8-49-39-48C34-167 62-67 57 0H25l-1-190h30c1 10-1 24 2 32 11-22 29-35 61-36" id="au"/><g id="b"><use transform="matrix(0.05,0,0,0.05,0,0)" xlink:href="#at"/><use transform="matrix(0.05,0,0,0.05,14,0)" xlink:href="#au"/></g><path d="M160-131c35 5 61 23 61 61C221 17 115-2 30 0v-248c76 3 177-17 177 60 0 33-19 50-47 57zm-97-11c50-1 110 9 110-42 0-47-63-36-110-37v79zm0 115c55-2 124 14 124-45 0-56-70-42-124-44v89" id="av"/><path d="M84 4C-5 8 30-112 23-190h32v120c0 31 7 50 39 49 72-2 45-101 50-169h31l1 190h-30c-1-10 1-25-2-33-11 22-28 36-60 37" id="aw"/><path d="M59-47c-2 24 18 29 38 22v24C64 9 27 4 27-40v-127H5v-23h24l9-43h21v43h35v23H59v120" id="ax"/><g id="c"><use transform="matrix(0.05,0,0,0.05,0,0)" xlink:href="#av"/><use transform="matrix(0.05,0,0,0.05,12,0)" xlink:href="#aw"/><use transform="matrix(0.05,0,0,0.05,22,0)" xlink:href="#ax"/><use transform="matrix(0.05,0,0,0.05,27,0)" xlink:href="#ax"/><use transform="matrix(0.05,0,0,0.05,32,0)" xlink:href="#ap"/><use transform="matrix(0.05,0,0,0.05,42,0)" xlink:href="#au"/></g><path d="M135-143c-3-34-86-38-87 0 15 53 115 12 119 90S17 21 10-45l28-5c4 36 97 45 98 0-10-56-113-15-118-90-4-57 82-63 122-42 12 7 21 19 24 35" id="ay"/><path d="M85-194c31 0 48 13 60 33l-1-100h32l1 261h-30c-2-10 0-23-3-31C134-8 116 4 85 4 32 4 16-35 15-94c0-66 23-100 70-100zm9 24c-40 0-46 34-46 75 0 40 6 74 45 74 42 0 51-32 51-76 0-42-9-74-50-73" id="az"/><g id="d"><use transform="matrix(0.05,0,0,0.05,0,0)" xlink:href="#ao"/><use transform="matrix(0.05,0,0,0.05,12,0)" xlink:href="#as"/><use transform="matrix(0.05,0,0,0.05,17.95,0)" xlink:href="#ar"/><use transform="matrix(0.05,0,0,0.05,27.950000000000003,0)" xlink:href="#ay"/><use transform="matrix(0.05,0,0,0.05,36.95,0)" xlink:href="#ay"/><use transform="matrix(0.05,0,0,0.05,45.95,0)" xlink:href="#ar"/><use transform="matrix(0.05,0,0,0.05,55.95,0)" xlink:href="#az"/></g><path d="M205 0l-28-72H64L36 0H1l101-248h38L239 0h-34zm-38-99l-47-123c-12 45-31 82-46 123h93" id="aA"/><path d="M24-231v-30h32v30H24zM24 0v-190h32V0H24" id="aB"/><g id="e"><use transform="matrix(0.05,0,0,0.05,0,0)" xlink:href="#aA"/><use transform="matrix(0.05,0,0,0.05,12,0)" xlink:href="#aw"/><use transform="matrix(0.05,0,0,0.05,22,0)" xlink:href="#az"/><use transform="matrix(0.05,0,0,0.05,32,0)" xlink:href="#aB"/><use transform="matrix(0.05,0,0,0.05,35.95,0)" xlink:href="#ap"/></g><path d="M33 0v-248h34V0H33" id="aC"/><path d="M115-194c55 1 70 41 70 98S169 2 115 4C84 4 66-9 55-30l1 105H24l-1-265h31l2 30c10-21 28-34 59-34zm-8 174c40 0 45-34 45-75s-6-73-45-74c-42 0-51 32-51 76 0 43 10 73 51 73" id="aD"/><g id="f"><use transform="matrix(0.05,0,0,0.05,0,0)" xlink:href="#aC"/><use transform="matrix(0.05,0,0,0.05,5,0)" xlink:href="#au"/><use transform="matrix(0.05,0,0,0.05,15,0)" xlink:href="#aD"/><use transform="matrix(0.05,0,0,0.05,25,0)" xlink:href="#aw"/><use transform="matrix(0.05,0,0,0.05,35,0)" xlink:href="#ax"/></g><path d="M96-169c-40 0-48 33-48 73s9 75 48 75c24 0 41-14 43-38l32 2c-6 37-31 61-74 61-59 0-76-41-82-99-10-93 101-131 147-64 4 7 5 14 7 22l-32 3c-4-21-16-35-41-35" id="aE"/><g id="g"><use transform="matrix(0.05,0,0,0.05,0,0)" xlink:href="#az"/><use transform="matrix(0.05,0,0,0.05,10,0)" xlink:href="#ar"/><use transform="matrix(0.05,0,0,0.05,20,0)" xlink:href="#ax"/><use transform="matrix(0.05,0,0,0.05,25,0)" xlink:href="#ar"/><use transform="matrix(0.05,0,0,0.05,35,0)" xlink:href="#aE"/><use transform="matrix(0.05,0,0,0.05,44,0)" xlink:href="#ax"/><use transform="matrix(0.05,0,0,0.05,49,0)" xlink:href="#ar"/><use transform="matrix(0.05,0,0,0.05,59,0)" xlink:href="#az"/></g><path d="M233-177c-1 41-23 64-60 70L243 0h-38l-65-103H63V0H30v-248c88 3 205-21 203 71zM63-129c60-2 137 13 137-47 0-61-80-42-137-45v92" id="aF"/><g id="h"><use transform="matrix(0.05,0,0,0.05,0,0)" xlink:href="#aF"/><use transform="matrix(0.05,0,0,0.05,12.950000000000001,0)" xlink:href="#ar"/><use transform="matrix(0.05,0,0,0.05,22.950000000000003,0)" xlink:href="#ay"/><use transform="matrix(0.05,0,0,0.05,31.950000000000003,0)" xlink:href="#ar"/><use transform="matrix(0.05,0,0,0.05,41.95,0)" xlink:href="#ax"/></g><g id="i"><use transform="matrix(0.05,0,0,0.05,0,0)" xlink:href="#ao"/><use transform="matrix(0.05,0,0,0.05,12,0)" xlink:href="#ap"/><use transform="matrix(0.05,0,0,0.05,22,0)" xlink:href="#aq"/><use transform="matrix(0.05,0,0,0.05,34.95,0)" xlink:href="#ar"/><use transform="matrix(0.05,0,0,0.05,44.95,0)" xlink:href="#as"/></g><path d="M127-220V0H93v-220H8v-28h204v28h-85" id="aG"/><path d="M210-169c-67 3-38 105-44 169h-31v-121c0-29-5-50-35-48C34-165 62-65 56 0H25l-1-190h30c1 10-1 24 2 32 10-44 99-50 107 0 11-21 27-35 58-36 85-2 47 119 55 194h-31v-121c0-29-5-49-35-48" id="aH"/><g id="j"><use transform="matrix(0.05,0,0,0.05,0,0)" xlink:href="#aG"/><use transform="matrix(0.05,0,0,0.05,10.3,0)" xlink:href="#aB"/><use transform="matrix(0.05,0,0,0.05,14.25,0)" xlink:href="#aH"/><use transform="matrix(0.05,0,0,0.05,29.200000000000003,0)" xlink:href="#ar"/><use transform="matrix(0.05,0,0,0.05,39.2,0)" xlink:href="#as"/></g><path d="M30 0v-248h33v221h125V0H30" id="aI"/><path d="M141-36C126-15 110 5 73 4 37 3 15-17 15-53c-1-64 63-63 125-63 3-35-9-54-41-54-24 1-41 7-42 31l-33-3c5-37 33-52 76-52 45 0 72 20 72 64v82c-1 20 7 32 28 27v20c-31 9-61-2-59-35zM48-53c0 20 12 33 32 33 41-3 63-29 60-74-43 2-92-5-92 41" id="aJ"/><g id="k"><use transform="matrix(0.05,0,0,0.05,0,0)" xlink:href="#aI"/><use transform="matrix(0.05,0,0,0.05,10,0)" xlink:href="#ap"/><use transform="matrix(0.05,0,0,0.05,20,0)" xlink:href="#aJ"/><use transform="matrix(0.05,0,0,0.05,30,0)" xlink:href="#az"/></g><path d="M185-189c-5-48-123-54-124 2 14 75 158 14 163 119 3 78-121 87-175 55-17-10-28-26-33-46l33-7c5 56 141 63 141-1 0-78-155-14-162-118-5-82 145-84 179-34 5 7 8 16 11 25" id="aK"/><path d="M177-190C167-65 218 103 67 71c-23-6-38-20-44-43l32-5c15 47 100 32 89-28v-30C133-14 115 1 83 1 29 1 15-40 15-95c0-56 16-97 71-98 29-1 48 16 59 35 1-10 0-23 2-32h30zM94-22c36 0 50-32 50-73 0-42-14-75-50-75-39 0-46 34-46 75s6 73 46 73" id="aL"/><g id="l"><use transform="matrix(0.05,0,0,0.05,0,0)" xlink:href="#aK"/><use transform="matrix(0.05,0,0,0.05,12,0)" xlink:href="#ar"/><use transform="matrix(0.05,0,0,0.05,22,0)" xlink:href="#ax"/><use transform="matrix(0.05,0,0,0.05,27,0)" xlink:href="#ax"/><use transform="matrix(0.05,0,0,0.05,32,0)" xlink:href="#aB"/><use transform="matrix(0.05,0,0,0.05,35.95,0)" xlink:href="#au"/><use transform="matrix(0.05,0,0,0.05,45.95,0)" xlink:href="#aL"/><use transform="matrix(0.05,0,0,0.05,55.95,0)" xlink:href="#ay"/></g><path d="M101-234c-31-9-42 10-38 44h38v23H63V0H32v-167H5v-23h27c-7-52 17-82 69-68v24" id="aM"/><g id="m"><use transform="matrix(0.05,0,0,0.05,0,0)" xlink:href="#aM"/><use transform="matrix(0.05,0,0,0.05,5,0)" xlink:href="#as"/><use transform="matrix(0.05,0,0,0.05,10.95,0)" xlink:href="#ap"/><use transform="matrix(0.05,0,0,0.05,20.95,0)" xlink:href="#aH"/></g><path d="M30 0v-248h187v28H63v79h144v27H63v87h162V0H30" id="aN"/><path d="M240 0l2-218c-23 76-54 145-80 218h-23L58-218 59 0H30v-248h44l77 211c21-75 51-140 76-211h43V0h-30" id="aO"/><g id="n"><use transform="matrix(0.05,0,0,0.05,0,0)" xlink:href="#aN"/><use transform="matrix(0.05,0,0,0.05,12,0)" xlink:href="#aN"/><use transform="matrix(0.05,0,0,0.05,24,0)" xlink:href="#ao"/><use transform="matrix(0.05,0,0,0.05,36,0)" xlink:href="#aF"/><use transform="matrix(0.05,0,0,0.05,48.95,0)" xlink:href="#at"/><use transform="matrix(0.05,0,0,0.05,62.95,0)" xlink:href="#aO"/></g><g id="o"><use transform="matrix(0.05,0,0,0.05,0,0)" xlink:href="#aJ"/><use transform="matrix(0.05,0,0,0.05,10,0)" xlink:href="#au"/><use transform="matrix(0.05,0,0,0.05,20,0)" xlink:href="#az"/></g><g id="p"><use transform="matrix(0.05,0,0,0.05,0,0)" xlink:href="#aN"/><use transform="matrix(0.05,0,0,0.05,12,0)" xlink:href="#aN"/><use transform="matrix(0.05,0,0,0.05,24,0)" xlink:href="#ao"/><use transform="matrix(0.05,0,0,0.05,36,0)" xlink:href="#ap"/><use transform="matrix(0.05,0,0,0.05,46,0)" xlink:href="#ax"/><use transform="matrix(0.05,0,0,0.05,51,0)" xlink:href="#ay"/></g><path d="M30-248c118-7 216 8 213 122C240-48 200 0 122 0H30v-248zM63-27c89 8 146-16 146-99s-60-101-146-95v194" id="aP"/><path d="M24 0v-261h32V0H24" id="aQ"/><path d="M179-190L93 31C79 59 56 82 12 73V49c39 6 53-20 64-50L1-190h34L92-34l54-156h33" id="aR"/><g id="q"><use transform="matrix(0.05,0,0,0.05,0,0)" xlink:href="#aP"/><use transform="matrix(0.05,0,0,0.05,12.950000000000001,0)" xlink:href="#ar"/><use transform="matrix(0.05,0,0,0.05,22.950000000000003,0)" xlink:href="#aQ"/><use transform="matrix(0.05,0,0,0.05,26.900000000000002,0)" xlink:href="#aJ"/><use transform="matrix(0.05,0,0,0.05,36.900000000000006,0)" xlink:href="#aR"/></g><g id="r"><use transform="matrix(0.05,0,0,0.05,0,0)" xlink:href="#aM"/><use transform="matrix(0.05,0,0,0.05,5,0)" xlink:href="#ap"/><use transform="matrix(0.05,0,0,0.05,15,0)" xlink:href="#as"/></g><g id="s"><use transform="matrix(0.05,0,0,0.05,0,0)" xlink:href="#aO"/><use transform="matrix(0.05,0,0,0.05,14.950000000000001,0)" xlink:href="#aw"/><use transform="matrix(0.05,0,0,0.05,24.950000000000003,0)" xlink:href="#ax"/><use transform="matrix(0.05,0,0,0.05,29.950000000000003,0)" xlink:href="#ar"/></g><g id="t"><use transform="matrix(0.05,0,0,0.05,0,0)" xlink:href="#aP"/><use transform="matrix(0.05,0,0,0.05,12.950000000000001,0)" xlink:href="#ar"/><use transform="matrix(0.05,0,0,0.05,22.950000000000003,0)" xlink:href="#aQ"/><use transform="matrix(0.05,0,0,0.05,26.900000000000002,0)" xlink:href="#aJ"/><use transform="matrix(0.05,0,0,0.05,36.900000000000006,0)" xlink:href="#aR"/></g><g id="u"><use transform="matrix(0.05,0,0,0.05,0,0)" xlink:href="#aM"/><use transform="matrix(0.05,0,0,0.05,5,0)" xlink:href="#ap"/><use transform="matrix(0.05,0,0,0.05,15,0)" xlink:href="#as"/></g><path d="M115-194c53 0 69 39 70 98 0 66-23 100-70 100C84 3 66-7 56-30L54 0H23l1-261h32v101c10-23 28-34 59-34zm-8 174c40 0 45-34 45-75 0-40-5-75-45-74-42 0-51 32-51 76 0 43 10 73 51 73" id="aS"/><g id="v"><use transform="matrix(0.05,0,0,0.05,0,0)" xlink:href="#aK"/><use transform="matrix(0.05,0,0,0.05,12,0)" xlink:href="#ax"/><use transform="matrix(0.05,0,0,0.05,17,0)" xlink:href="#aJ"/><use transform="matrix(0.05,0,0,0.05,27,0)" xlink:href="#au"/><use transform="matrix(0.05,0,0,0.05,37,0)" xlink:href="#az"/><use transform="matrix(0.05,0,0,0.05,47,0)" xlink:href="#aS"/><use transform="matrix(0.05,0,0,0.05,57,0)" xlink:href="#aR"/></g><g id="w"><use transform="matrix(0.05,0,0,0.05,0,0)" xlink:href="#aO"/><use transform="matrix(0.05,0,0,0.05,14.950000000000001,0)" xlink:href="#aw"/><use transform="matrix(0.05,0,0,0.05,24.950000000000003,0)" xlink:href="#ax"/><use transform="matrix(0.05,0,0,0.05,29.950000000000003,0)" xlink:href="#ar"/></g><path d="M106-169C34-169 62-67 57 0H25v-261h32l-1 103c12-21 28-36 61-36 89 0 53 116 60 194h-32v-121c2-32-8-49-39-48" id="aT"/><g id="x"><use transform="matrix(0.05,0,0,0.05,0,0)" xlink:href="#ax"/><use transform="matrix(0.05,0,0,0.05,5,0)" xlink:href="#aT"/><use transform="matrix(0.05,0,0,0.05,15,0)" xlink:href="#ar"/></g><g id="y"><use transform="matrix(0.05,0,0,0.05,0,0)" xlink:href="#aA"/><use transform="matrix(0.05,0,0,0.05,12,0)" xlink:href="#aH"/><use transform="matrix(0.05,0,0,0.05,26.950000000000003,0)" xlink:href="#aD"/></g><path d="M234-2c-28 10-62 0-77-18C117 19 8 12 13-65c3-43 29-61 60-76-25-40-17-114 47-108 35 3 59 15 59 50 0 44-40 53-71 69 14 26 32 50 51 72 14-21 24-43 30-72l26 8c-9 33-21 57-38 82 13 13 33 22 57 15v23zM97-151c25-10 52-18 56-48-1-18-13-29-33-29-42 0-39 50-23 77zM42-66c-3 51 71 58 98 28-20-24-41-51-56-80-23 10-40 24-42 52" id="aU"/><use transform="matrix(0.05,0,0,0.05,0,0)" xlink:href="#aU" id="z"/><g id="A"><use transform="matrix(0.05,0,0,0.05,0,0)" xlink:href="#aK"/><use transform="matrix(0.05,0,0,0.05,12,0)" xlink:href="#aT"/><use transform="matrix(0.05,0,0,0.05,22,0)" xlink:href="#aw"/><use transform="matrix(0.05,0,0,0.05,32,0)" xlink:href="#ax"/><use transform="matrix(0.05,0,0,0.05,37,0)" xlink:href="#az"/><use transform="matrix(0.05,0,0,0.05,47,0)" xlink:href="#ap"/><use transform="matrix(0.05,0,0,0.05,57,0)" xlink:href="#aq"/><use transform="matrix(0.05,0,0,0.05,69.95,0)" xlink:href="#au"/></g><g id="B"><use transform="matrix(0.05,0,0,0.05,0,0)" xlink:href="#aP"/><use transform="matrix(0.05,0,0,0.05,12.950000000000001,0)" xlink:href="#aB"/><use transform="matrix(0.05,0,0,0.05,16.900000000000002,0)" xlink:href="#ay"/><use transform="matrix(0.05,0,0,0.05,25.900000000000002,0)" xlink:href="#aE"/><use transform="matrix(0.05,0,0,0.05,34.900000000000006,0)" xlink:href="#ap"/><use transform="matrix(0.05,0,0,0.05,44.900000000000006,0)" xlink:href="#au"/><use transform="matrix(0.05,0,0,0.05,54.900000000000006,0)" xlink:href="#au"/><use transform="matrix(0.05,0,0,0.05,64.9,0)" xlink:href="#ar"/><use transform="matrix(0.05,0,0,0.05,74.9,0)" xlink:href="#aE"/><use transform="matrix(0.05,0,0,0.05,83.9,0)" xlink:href="#ax"/></g><path d="M143 0L79-87 56-68V0H24v-261h32v163l83-92h37l-77 82L181 0h-38" id="aV"/><g id="C"><use transform="matrix(0.05,0,0,0.05,0,0)" xlink:href="#aK"/><use transform="matrix(0.05,0,0,0.05,12,0)" xlink:href="#aD"/><use transform="matrix(0.05,0,0,0.05,22,0)" xlink:href="#ar"/><use transform="matrix(0.05,0,0,0.05,32,0)" xlink:href="#aJ"/><use transform="matrix(0.05,0,0,0.05,42,0)" xlink:href="#aV"/><use transform="matrix(0.05,0,0,0.05,51,0)" xlink:href="#ar"/><use transform="matrix(0.05,0,0,0.05,61,0)" xlink:href="#as"/><use transform="matrix(0.05,0,0,0.05,66.95,0)" xlink:href="#ay"/></g><g id="D"><use transform="matrix(0.05,0,0,0.05,0,0)" xlink:href="#aK"/><use transform="matrix(0.05,0,0,0.05,12,0)" xlink:href="#aT"/><use transform="matrix(0.05,0,0,0.05,22,0)" xlink:href="#aw"/><use transform="matrix(0.05,0,0,0.05,32,0)" xlink:href="#ax"/><use transform="matrix(0.05,0,0,0.05,37,0)" xlink:href="#az"/><use transform="matrix(0.05,0,0,0.05,47,0)" xlink:href="#ap"/><use transform="matrix(0.05,0,0,0.05,57,0)" xlink:href="#aq"/><use transform="matrix(0.05,0,0,0.05,69.95,0)" xlink:href="#au"/></g><path d="M212-179c-10-28-35-45-73-45-59 0-87 40-87 99 0 60 29 101 89 101 43 0 62-24 78-52l27 14C228-24 195 4 139 4 59 4 22-46 18-125c-6-104 99-153 187-111 19 9 31 26 39 46" id="aW"/><g id="E"><use transform="matrix(0.05,0,0,0.05,0,0)" xlink:href="#aW"/><use transform="matrix(0.05,0,0,0.05,12.950000000000001,0)" xlink:href="#ap"/><use transform="matrix(0.05,0,0,0.05,22.950000000000003,0)" xlink:href="#au"/><use transform="matrix(0.05,0,0,0.05,32.95,0)" xlink:href="#au"/><use transform="matrix(0.05,0,0,0.05,42.95,0)" xlink:href="#ar"/><use transform="matrix(0.05,0,0,0.05,52.95,0)" xlink:href="#aE"/><use transform="matrix(0.05,0,0,0.05,61.95,0)" xlink:href="#ax"/></g><path d="M24-231v-30h32v30H24zM-9 49c24 4 33-6 33-30v-209h32V24c2 40-23 58-65 49V49" id="aX"/><g id="F"><use transform="matrix(0.05,0,0,0.05,0,0)" xlink:href="#aA"/><use transform="matrix(0.05,0,0,0.05,12,0)" xlink:href="#az"/><use transform="matrix(0.05,0,0,0.05,22,0)" xlink:href="#aX"/><use transform="matrix(0.05,0,0,0.05,25.950000000000003,0)" xlink:href="#aw"/><use transform="matrix(0.05,0,0,0.05,35.95,0)" xlink:href="#ay"/><use transform="matrix(0.05,0,0,0.05,44.95,0)" xlink:href="#ax"/></g><g id="G"><use transform="matrix(0.05,0,0,0.05,0,0)" xlink:href="#aO"/><use transform="matrix(0.05,0,0,0.05,14.950000000000001,0)" xlink:href="#aJ"/><use transform="matrix(0.05,0,0,0.05,24.950000000000003,0)" xlink:href="#ay"/><use transform="matrix(0.05,0,0,0.05,33.95,0)" xlink:href="#ax"/><use transform="matrix(0.05,0,0,0.05,38.95,0)" xlink:href="#ar"/><use transform="matrix(0.05,0,0,0.05,48.95,0)" xlink:href="#as"/></g><path d="M137 0h-34L2-248h35l83 218 83-218h36" id="aY"/><g id="H"><use transform="matrix(0.05,0,0,0.05,0,0)" xlink:href="#aY"/><use transform="matrix(0.05,0,0,0.05,11,0)" xlink:href="#ap"/><use transform="matrix(0.05,0,0,0.05,21,0)" xlink:href="#aQ"/><use transform="matrix(0.05,0,0,0.05,24.95,0)" xlink:href="#aw"/><use transform="matrix(0.05,0,0,0.05,34.95,0)" xlink:href="#aH"/><use transform="matrix(0.05,0,0,0.05,49.900000000000006,0)" xlink:href="#ar"/></g><path d="M232-93c-1 65-40 97-104 97C67 4 28-28 28-90v-158h33c8 89-33 224 67 224 102 0 64-133 71-224h33v155" id="aZ"/><g id="I"><use transform="matrix(0.05,0,0,0.05,0,0)" xlink:href="#aZ"/><use transform="matrix(0.05,0,0,0.05,12.950000000000001,0)" xlink:href="#au"/><use transform="matrix(0.05,0,0,0.05,22.950000000000003,0)" xlink:href="#aH"/><use transform="matrix(0.05,0,0,0.05,37.900000000000006,0)" xlink:href="#aw"/><use transform="matrix(0.05,0,0,0.05,47.900000000000006,0)" xlink:href="#ax"/><use transform="matrix(0.05,0,0,0.05,52.900000000000006,0)" xlink:href="#ar"/></g><g id="J"><use transform="matrix(0.05,0,0,0.05,0,0)" xlink:href="#aJ"/><use transform="matrix(0.05,0,0,0.05,10,0)" xlink:href="#au"/><use transform="matrix(0.05,0,0,0.05,20,0)" xlink:href="#az"/></g><g id="K"><use transform="matrix(0.05,0,0,0.05,0,0)" xlink:href="#ao"/><use transform="matrix(0.05,0,0,0.05,12,0)" xlink:href="#ap"/><use transform="matrix(0.05,0,0,0.05,22,0)" xlink:href="#aq"/><use transform="matrix(0.05,0,0,0.05,34.95,0)" xlink:href="#ar"/><use transform="matrix(0.05,0,0,0.05,44.95,0)" xlink:href="#as"/></g><g id="L"><use transform="matrix(0.05,0,0,0.05,0,0)" xlink:href="#ap"/><use transform="matrix(0.05,0,0,0.05,10,0)" xlink:href="#au"/></g><path d="M266 0h-40l-56-210L115 0H75L2-248h35L96-30l15-64 43-154h32l59 218 59-218h35" id="ba"/><g id="M"><use transform="matrix(0.05,0,0,0.05,0,0)" xlink:href="#ba"/><use transform="matrix(0.05,0,0,0.05,16.3,0)" xlink:href="#aJ"/><use transform="matrix(0.05,0,0,0.05,26.3,0)" xlink:href="#aB"/><use transform="matrix(0.05,0,0,0.05,30.25,0)" xlink:href="#ax"/></g><g id="N"><use transform="matrix(0.05,0,0,0.05,0,0)" xlink:href="#aw"/><use transform="matrix(0.05,0,0,0.05,10,0)" xlink:href="#au"/><use transform="matrix(0.05,0,0,0.05,20,0)" xlink:href="#ax"/><use transform="matrix(0.05,0,0,0.05,25,0)" xlink:href="#aB"/><use transform="matrix(0.05,0,0,0.05,28.950000000000003,0)" xlink:href="#aQ"/></g><path d="M143 4C61 4 22-44 18-125c-5-107 100-154 193-111 17 8 29 25 37 43l-32 9c-13-25-37-40-76-40-61 0-88 39-88 99 0 61 29 100 91 101 35 0 62-11 79-27v-45h-74v-28h105v86C228-13 192 4 143 4" id="bb"/><g id="O"><use transform="matrix(0.05,0,0,0.05,0,0)" xlink:href="#bb"/><use transform="matrix(0.05,0,0,0.05,14,0)" xlink:href="#ap"/><use transform="matrix(0.05,0,0,0.05,24,0)" xlink:href="#ap"/><use transform="matrix(0.05,0,0,0.05,34,0)" xlink:href="#az"/></g><path d="M27 0v-27h64v-190l-56 39v-29l58-41h29v221h61V0H27" id="bc"/><path d="M101-251c68 0 85 55 85 127S166 4 100 4C33 4 14-52 14-124c0-73 17-127 87-127zm-1 229c47 0 54-49 54-102s-4-102-53-102c-51 0-55 48-55 102 0 53 5 102 54 102" id="bd"/><g id="P"><use transform="matrix(0.05,0,0,0.05,0,0)" xlink:href="#bc"/><use transform="matrix(0.05,0,0,0.05,10,0)" xlink:href="#bd"/></g><g id="Q"><use transform="matrix(0.05,0,0,0.05,0,0)" xlink:href="#aK"/><use transform="matrix(0.05,0,0,0.05,12,0)" xlink:href="#ar"/><use transform="matrix(0.05,0,0,0.05,22,0)" xlink:href="#aE"/><use transform="matrix(0.05,0,0,0.05,31,0)" xlink:href="#ap"/><use transform="matrix(0.05,0,0,0.05,41,0)" xlink:href="#au"/><use transform="matrix(0.05,0,0,0.05,51,0)" xlink:href="#az"/><use transform="matrix(0.05,0,0,0.05,61,0)" xlink:href="#ay"/></g><path d="M197 0v-115H63V0H30v-248h33v105h134v-105h34V0h-34" id="be"/><g id="R"><use transform="matrix(0.05,0,0,0.05,0,0)" xlink:href="#be"/><use transform="matrix(0.05,0,0,0.05,12.950000000000001,0)" xlink:href="#ap"/><use transform="matrix(0.05,0,0,0.05,22.950000000000003,0)" xlink:href="#aH"/><use transform="matrix(0.05,0,0,0.05,37.900000000000006,0)" xlink:href="#ar"/></g><g id="S"><use transform="matrix(0.05,0,0,0.05,0,0)" xlink:href="#aK"/><use transform="matrix(0.05,0,0,0.05,12,0)" xlink:href="#aE"/><use transform="matrix(0.05,0,0,0.05,21,0)" xlink:href="#as"/><use transform="matrix(0.05,0,0,0.05,26.950000000000003,0)" xlink:href="#ar"/><use transform="matrix(0.05,0,0,0.05,36.95,0)" xlink:href="#ar"/><use transform="matrix(0.05,0,0,0.05,46.95,0)" xlink:href="#au"/></g><g id="T"><use transform="matrix(0.05,0,0,0.05,0,0)" xlink:href="#aN"/><use transform="matrix(0.05,0,0,0.05,12,0)" xlink:href="#au"/><use transform="matrix(0.05,0,0,0.05,22,0)" xlink:href="#aE"/><use transform="matrix(0.05,0,0,0.05,31,0)" xlink:href="#ap"/><use transform="matrix(0.05,0,0,0.05,41,0)" xlink:href="#az"/><use transform="matrix(0.05,0,0,0.05,51,0)" xlink:href="#ar"/><use transform="matrix(0.05,0,0,0.05,61,0)" xlink:href="#as"/></g><g id="U"><use transform="matrix(0.05,0,0,0.05,0,0)" xlink:href="#aJ"/><use transform="matrix(0.05,0,0,0.05,10,0)" xlink:href="#aE"/><use transform="matrix(0.05,0,0,0.05,19,0)" xlink:href="#ax"/><use transform="matrix(0.05,0,0,0.05,24,0)" xlink:href="#aB"/><use transform="matrix(0.05,0,0,0.05,27.950000000000003,0)" xlink:href="#ap"/><use transform="matrix(0.05,0,0,0.05,37.95,0)" xlink:href="#au"/></g><g id="V"><use transform="matrix(0.05,0,0,0.05,0,0)" xlink:href="#aG"/><use transform="matrix(0.05,0,0,0.05,10.3,0)" xlink:href="#aw"/><use transform="matrix(0.05,0,0,0.05,20.3,0)" xlink:href="#as"/><use transform="matrix(0.05,0,0,0.05,26.25,0)" xlink:href="#au"/></g><g id="W"><use transform="matrix(0.05,0,0,0.05,0,0)" xlink:href="#aN"/><use transform="matrix(0.05,0,0,0.05,12,0)" xlink:href="#au"/><use transform="matrix(0.05,0,0,0.05,22,0)" xlink:href="#ax"/><use transform="matrix(0.05,0,0,0.05,27,0)" xlink:href="#ar"/><use transform="matrix(0.05,0,0,0.05,37,0)" xlink:href="#as"/></g><g id="X"><use transform="matrix(0.05,0,0,0.05,0,0)" xlink:href="#aO"/><use transform="matrix(0.05,0,0,0.05,14.950000000000001,0)" xlink:href="#ar"/><use transform="matrix(0.05,0,0,0.05,24.950000000000003,0)" xlink:href="#au"/><use transform="matrix(0.05,0,0,0.05,34.95,0)" xlink:href="#aw"/></g><g id="Y"><use transform="matrix(0.05,0,0,0.05,0,0)" xlink:href="#aW"/><use transform="matrix(0.05,0,0,0.05,12.950000000000001,0)" xlink:href="#aQ"/><use transform="matrix(0.05,0,0,0.05,16.900000000000002,0)" xlink:href="#aB"/><use transform="matrix(0.05,0,0,0.05,20.85,0)" xlink:href="#aE"/><use transform="matrix(0.05,0,0,0.05,29.85,0)" xlink:href="#aV"/></g><path d="M190 0L58-211 59 0H30v-248h39L202-35l-2-213h31V0h-41" id="bf"/><path d="M141 0L90-78 38 0H4l68-98-65-92h35l48 74 47-74h35l-64 92 68 98h-35" id="bg"/><g id="Z"><use transform="matrix(0.05,0,0,0.05,0,0)" xlink:href="#bf"/><use transform="matrix(0.05,0,0,0.05,12.950000000000001,0)" xlink:href="#ar"/><use transform="matrix(0.05,0,0,0.05,22.950000000000003,0)" xlink:href="#bg"/><use transform="matrix(0.05,0,0,0.05,31.950000000000003,0)" xlink:href="#ax"/></g><g id="aa"><use transform="matrix(0.05,0,0,0.05,0,0)" xlink:href="#aK"/><use transform="matrix(0.05,0,0,0.05,12,0)" xlink:href="#ar"/><use transform="matrix(0.05,0,0,0.05,22,0)" xlink:href="#ax"/><use transform="matrix(0.05,0,0,0.05,27,0)" xlink:href="#ax"/><use transform="matrix(0.05,0,0,0.05,32,0)" xlink:href="#aB"/><use transform="matrix(0.05,0,0,0.05,35.95,0)" xlink:href="#au"/><use transform="matrix(0.05,0,0,0.05,45.95,0)" xlink:href="#aL"/></g><g id="ab"><use transform="matrix(0.05,0,0,0.05,0,0)" xlink:href="#ao"/><use transform="matrix(0.05,0,0,0.05,12,0)" xlink:href="#ar"/><use transform="matrix(0.05,0,0,0.05,22,0)" xlink:href="#as"/><use transform="matrix(0.05,0,0,0.05,27.950000000000003,0)" xlink:href="#ay"/><use transform="matrix(0.05,0,0,0.05,36.95,0)" xlink:href="#aB"/><use transform="matrix(0.05,0,0,0.05,40.900000000000006,0)" xlink:href="#ay"/><use transform="matrix(0.05,0,0,0.05,49.900000000000006,0)" xlink:href="#ax"/></g><g id="ac"><use transform="matrix(0.05,0,0,0.05,0,0)" xlink:href="#aK"/><use transform="matrix(0.05,0,0,0.05,12,0)" xlink:href="#ar"/><use transform="matrix(0.05,0,0,0.05,22,0)" xlink:href="#ax"/><use transform="matrix(0.05,0,0,0.05,27,0)" xlink:href="#ax"/><use transform="matrix(0.05,0,0,0.05,32,0)" xlink:href="#aB"/><use transform="matrix(0.05,0,0,0.05,35.95,0)" xlink:href="#au"/><use transform="matrix(0.05,0,0,0.05,45.95,0)" xlink:href="#aL"/></g><g id="ad"><use transform="matrix(0.05,0,0,0.05,0,0)" xlink:href="#ax"/><use transform="matrix(0.05,0,0,0.05,5,0)" xlink:href="#ap"/></g><g id="ae"><use transform="matrix(0.05,0,0,0.05,0,0)" xlink:href="#aN"/><use transform="matrix(0.05,0,0,0.05,12,0)" xlink:href="#aN"/><use transform="matrix(0.05,0,0,0.05,24,0)" xlink:href="#ao"/><use transform="matrix(0.05,0,0,0.05,36,0)" xlink:href="#aF"/><use transform="matrix(0.05,0,0,0.05,48.95,0)" xlink:href="#at"/><use transform="matrix(0.05,0,0,0.05,62.95,0)" xlink:href="#aO"/></g><g id="af"><use transform="matrix(0.05,0,0,0.05,0,0)" xlink:href="#aA"/><use transform="matrix(0.05,0,0,0.05,12,0)" xlink:href="#az"/><use transform="matrix(0.05,0,0,0.05,22,0)" xlink:href="#aX"/><use transform="matrix(0.05,0,0,0.05,25.950000000000003,0)" xlink:href="#aw"/><use transform="matrix(0.05,0,0,0.05,35.95,0)" xlink:href="#ay"/><use transform="matrix(0.05,0,0,0.05,44.95,0)" xlink:href="#ax"/></g><g id="ag"><use transform="matrix(0.05,0,0,0.05,0,0)" xlink:href="#aK"/><use transform="matrix(0.05,0,0,0.05,12,0)" xlink:href="#ar"/><use transform="matrix(0.05,0,0,0.05,22,0)" xlink:href="#ax"/><use transform="matrix(0.05,0,0,0.05,27,0)" xlink:href="#ax"/><use transform="matrix(0.05,0,0,0.05,32,0)" xlink:href="#aB"/><use transform="matrix(0.05,0,0,0.05,35.95,0)" xlink:href="#au"/><use transform="matrix(0.05,0,0,0.05,45.95,0)" xlink:href="#aL"/></g><g id="ah"><use transform="matrix(0.05,0,0,0.05,0,0)" xlink:href="#aY"/><use transform="matrix(0.05,0,0,0.05,11,0)" xlink:href="#ap"/><use transform="matrix(0.05,0,0,0.05,21,0)" xlink:href="#aQ"/><use transform="matrix(0.05,0,0,0.05,24.95,0)" xlink:href="#aJ"/><use transform="matrix(0.05,0,0,0.05,34.95,0)" xlink:href="#ax"/><use transform="matrix(0.05,0,0,0.05,39.95,0)" xlink:href="#aB"/><use transform="matrix(0.05,0,0,0.05,43.900000000000006,0)" xlink:href="#aQ"/><use transform="matrix(0.05,0,0,0.05,47.85000000000001,0)" xlink:href="#ar"/></g><g id="ai"><use transform="matrix(0.05,0,0,0.05,0,0)" xlink:href="#aA"/><use transform="matrix(0.05,0,0,0.05,12,0)" xlink:href="#aH"/><use transform="matrix(0.05,0,0,0.05,26.950000000000003,0)" xlink:href="#aD"/></g><g id="aj"><use transform="matrix(0.05,0,0,0.05,0,0)" xlink:href="#aB"/><use transform="matrix(0.05,0,0,0.05,3.95,0)" xlink:href="#ay"/></g><g id="ak"><use transform="matrix(0.05,0,0,0.05,0,0)" xlink:href="#ao"/><use transform="matrix(0.05,0,0,0.05,12,0)" xlink:href="#ap"/><use transform="matrix(0.05,0,0,0.05,22,0)" xlink:href="#aq"/><use transform="matrix(0.05,0,0,0.05,34.95,0)" xlink:href="#ar"/><use transform="matrix(0.05,0,0,0.05,44.95,0)" xlink:href="#as"/><use transform="matrix(0.05,0,0,0.05,50.900000000000006,0)" xlink:href="#ar"/><use transform="matrix(0.05,0,0,0.05,60.900000000000006,0)" xlink:href="#az"/></g><g id="al"><use transform="matrix(0.05,0,0,0.05,0,0)" xlink:href="#ap"/><use transform="matrix(0.05,0,0,0.05,10,0)" xlink:href="#au"/></g><g id="am"><use transform="matrix(0.05,0,0,0.05,0,0)" xlink:href="#bf"/><use transform="matrix(0.05,0,0,0.05,12.950000000000001,0)" xlink:href="#ap"/></g><path d="M137-103V0h-34v-103L8-248h37l75 118 75-118h37" id="bh"/><g id="an"><use transform="matrix(0.05,0,0,0.05,0,0)" xlink:href="#bh"/><use transform="matrix(0.05,0,0,0.05,10.35,0)" xlink:href="#ar"/><use transform="matrix(0.05,0,0,0.05,20.35,0)" xlink:href="#ay"/></g></defs></g></svg>